<svg xmlns="http://www.w3.org/2000/svg" viewBox="0 0 298 113"><defs><style>.cls-1{fill:#fff;}.cls-2{fill:#1d1d1b;}.cls-3{fill:#facd08;}</style></defs><g id="paleta_colors"><path class="cls-1" d="M62,93C49.27,93,39.28,82.7,39.28,69.52a24.3,24.3,0,0,1,5.89-16.11A21.84,21.84,0,0,1,61.78,46c12.71,0,22.3,10.1,22.3,23.5a11.49,11.49,0,0,1-1.19,5.1,11.53,11.53,0,0,1-1.53,7.54l-.08.12A22.49,22.49,0,0,1,62,93Z"/><path class="cls-1" d="M79.88,93a11.58,11.58,0,0,1-11.55-11.6V57.57A11.56,11.56,0,0,1,83.82,46.71,21.12,21.12,0,0,1,89.23,46,11.57,11.57,0,0,1,91.48,69V81.42A11.61,11.61,0,0,1,79.88,93Z"/><path class="cls-1" d="M114.08,93a11.58,11.58,0,0,1-9.35-4.74,11.56,11.56,0,0,1-20.9-6.86V57.57A11.57,11.57,0,0,1,99.42,46.74,21.41,21.41,0,0,1,105,46a20.22,20.22,0,0,1,15.35,6.9,22,22,0,0,1,5.3,14.6v13.9A11.58,11.58,0,0,1,114.08,93Z"/><path class="cls-1" d="M142.58,93a11.51,11.51,0,0,1-4.62-1,22.92,22.92,0,0,1-6.58,1c-12.76,0-22.75-10.32-22.75-23.5s10-23.5,22.75-23.5A23.32,23.32,0,0,1,138,47a11.62,11.62,0,0,1,16.22,10.6V81.42A11.61,11.61,0,0,1,142.58,93Z"/><path class="cls-1" d="M182,93a16.5,16.5,0,0,1-16.51-16.45V65.36a11.57,11.57,0,0,1,.06-15.61,11.6,11.6,0,0,1,22.29-3.2,11.59,11.59,0,0,1,8.11,11c0,4.86.32,9-3.93,10.75v.2c1.64.45-.15,1.26,1.16,2.39a11.61,11.61,0,0,1,1.58,16l-.14.18-.15.17A16.43,16.43,0,0,1,182,93Z"/><path class="cls-1" d="M224.36,108.26A12,12,0,0,1,219,107h0a10,10,0,0,1-4.52-4.58h0a16.74,16.74,0,0,0-15-9.38c-.39,0-.78,0-1.17,0a36.58,36.58,0,0,0-3.27,2l-.26.17A29.14,29.14,0,0,1,182.24,100a10.93,10.93,0,0,1-2.36.25c-.33,0-.65,0-1,0a11.48,11.48,0,0,1-20.45-.08,11.31,11.31,0,0,1-.57-9.07,17.47,17.47,0,0,1,.82-1.93c-.14-.25-.28-.49-.4-.74a11.56,11.56,0,0,1-20.53-7.34V57.3a11.63,11.63,0,0,1,11.43-11.64h.12a11.82,11.82,0,0,1,4,.72,21.71,21.71,0,0,1,5.55-.72,20.25,20.25,0,0,1,15.36,6.9,22.06,22.06,0,0,1,5.29,14.6v10l.38-.07a17.78,17.78,0,0,0,4.14-2.19,47.81,47.81,0,0,1,5.38-3,16.61,16.61,0,0,0,3.32-12,10.31,10.31,0,0,0-.79-2.92,12.25,12.25,0,0,1-4.52-2.9l-2.91-2.9A12.46,12.46,0,0,1,182.83,49a12.55,12.55,0,0,1-3.07-1.52l-3.41-2.32a12.36,12.36,0,0,1-3-2.89,12.62,12.62,0,0,1-2.85-.8l-3.8-1.57a12.49,12.49,0,0,1-4-2.66h-.18a12.58,12.58,0,0,1-3.34-.46l-4-1.1a12.37,12.37,0,0,1-6.77-4.72,112.39,112.39,0,0,0-16.17-2.08c-2.48-.15-5-.22-7.45-.22a123.23,123.23,0,0,0-26.54,2.88A183.06,183.06,0,0,0,53.2,48.23,25.43,25.43,0,0,0,39.49,70.75h5.6A11.82,11.82,0,0,1,57,81.23,11.61,11.61,0,0,1,45.44,94H27.88a11.6,11.6,0,0,1-11.6-11.6V50.25a11.55,11.55,0,0,1,2.3-6.92A11.66,11.66,0,0,1,22,39.87,238.23,238.23,0,0,1,60.63,19.51,188.54,188.54,0,0,1,99.34,7.83a143,143,0,0,1,25.3-2.24,148.34,148.34,0,0,1,15.74.84A124.85,124.85,0,0,1,155.2,8.92a12.39,12.39,0,0,1,4.17-.72,12.13,12.13,0,0,1,3.34.46l3.95,1.09A12.45,12.45,0,0,1,172.23,13h.41a12.37,12.37,0,0,1,4.72.93l3.81,1.57a12.52,12.52,0,0,1,5.45,4.36,12.56,12.56,0,0,1,5.5,2.07l3.1,2.12a12.67,12.67,0,0,1,3.83,4.1,12.45,12.45,0,0,1,5.33,3.16l2.9,2.91A12.34,12.34,0,0,1,210.76,41h0a16.57,16.57,0,0,0,15.43-4.18,11.35,11.35,0,0,1,19,10.17A16.7,16.7,0,0,0,248.35,60,7.09,7.09,0,0,0,254,62.77h1c2.62,0,5,.1,7.27.32a9.18,9.18,0,0,0,2.35-2.31c1-1.83,1.49-4.6,2-7.54l.05-.26a11.16,11.16,0,0,1,11.1-9.3,11.68,11.68,0,0,1,9,4.21,11.49,11.49,0,0,1,2.48,9.47c-.74,4.08-1.76,9.67-4.69,14.87-.33.59-.68,1.15-1,1.68a11.45,11.45,0,0,1,1.16,11.16,11.57,11.57,0,0,1-10.59,7h0a11.3,11.3,0,0,1-7.82-3.15c-1.25-1.18-3.07-2.64-4.66-2.81a65.09,65.09,0,0,0-6.89-.33c-1.49,0-3.12,0-5,.12A16.71,16.71,0,0,0,236,98.83,12,12,0,0,1,224.36,108.26Zm-3.27-41.81a3.43,3.43,0,0,0-2.42,1,3.5,3.5,0,0,0,2.43,6,3.43,3.43,0,0,0,2.42-1,3.5,3.5,0,0,0-2.43-6Z"/><path class="cls-2" d="M63,83c-7.3,0-12.75-5.8-12.75-13.5a14.25,14.25,0,0,1,3.4-9.5,12,12,0,0,1,9.1-4c7.15,0,12.3,5.65,12.3,13.5a1.61,1.61,0,0,1-1.6,1.6h-20c.7,5,4.55,8.7,9.5,8.7a9,9,0,0,0,8-4.5A1.62,1.62,0,0,1,73.78,77,12.39,12.39,0,0,1,63,83Zm-9.5-15.1H71.78c-.6-5.2-4.1-8.75-9-8.75S54.18,62.77,53.53,67.92Z"/><path class="cls-3" d="M90.83,57.57a1.58,1.58,0,0,1-1.6,1.6c-4.4,0-7.75,3.6-7.75,8.35v13.9a1.58,1.58,0,1,1-3.15,0V57.57a1.58,1.58,0,0,1,3.15,0v1.65A10.67,10.67,0,0,1,89.23,56,1.57,1.57,0,0,1,90.83,57.57Z"/><path class="cls-2" d="M115.63,67.52v13.9a1.58,1.58,0,1,1-3.15,0V67.52c0-4.8-3.15-8.35-7.5-8.35a8.1,8.1,0,0,0-8,8.35v13.9a1.58,1.58,0,1,1-3.15,0V57.57a1.58,1.58,0,0,1,3.15,0v1.8A11.06,11.06,0,0,1,105,56a10.16,10.16,0,0,1,7.8,3.45A12.08,12.08,0,0,1,115.63,67.52Z"/><path class="cls-2" d="M144.18,57.57V81.42a1.6,1.6,0,0,1-3.2,0v-2.8a12.33,12.33,0,0,1-9.6,4.4c-7.25,0-12.75-5.8-12.75-13.5S124.13,56,131.38,56a12.45,12.45,0,0,1,9.6,4.35v-2.8a1.6,1.6,0,0,1,3.2,0ZM141,69.52c0-5.9-4.1-10.35-9.6-10.35s-9.55,4.45-9.55,10.35,4.1,10.3,9.55,10.3S141,75.37,141,69.52Z"/><path class="cls-2" d="M186.68,78.52a1.59,1.59,0,0,1,.2,2.25,6.49,6.49,0,0,1-11.4-4.2V59.17H174A1.58,1.58,0,0,1,174,56h1.45v-5.1a1.61,1.61,0,0,1,1.6-1.6,1.58,1.58,0,0,1,1.6,1.6V56h5.65a1.58,1.58,0,1,1,0,3.15h-5.65v17.4a3.29,3.29,0,0,0,3.3,3.25,3.11,3.11,0,0,0,2.45-1.15A1.59,1.59,0,0,1,186.68,78.52Z"/><path class="cls-3" d="M276.54,54.77c-.66,3.65-1.33,7.46-3.12,10.77-1.49,2.76-4.37,5.12-7.15,7a4.45,4.45,0,0,1-3,.72h0a63.77,63.77,0,0,0-9.09-.49,16.8,16.8,0,0,1-13.24-6.14,26.61,26.61,0,0,1-5.47-21.36,1.35,1.35,0,0,0-2.26-1.21,26.64,26.64,0,0,1-23.87,6.88,17.28,17.28,0,0,1-9.48-5.68l0,0,.45-.46a2.43,2.43,0,0,0,0-3.45l-2.9-2.91a2.46,2.46,0,0,0-3.46,0l-.4.4c-1-.9-2-1.77-3.1-2.62l.18-.25h0a2.91,2.91,0,0,0-.94-3.59l-3.1-2.12a2.45,2.45,0,0,0-3.4.64L183,31c-1.47-.93-3-1.83-4.48-2.67l.12-.31a2.44,2.44,0,0,0-1.32-3.19l-3.8-1.57a2.45,2.45,0,0,0-3.09,1.13q-2.37-1-4.79-1.91v0h0a2.43,2.43,0,0,0-1.7-3l-4-1.1a2.43,2.43,0,0,0-2.9,1.41,114.93,114.93,0,0,0-17.81-3.32,134.75,134.75,0,0,0-38.2,1.29A178,178,0,0,0,64.46,28.74a228.72,228.72,0,0,0-37,19.51,1.5,1.5,0,0,0-.62.79,1.59,1.59,0,0,0-.57,1.21v32.1A1.61,1.61,0,0,0,27.89,84H45.44a1.58,1.58,0,0,0,1.6-1.6,1.61,1.61,0,0,0-1.6-1.6h-16V50.52C49.79,37.36,72.43,27,96.11,21.73a133.34,133.34,0,0,1,36.73-2.89,118,118,0,0,1,23.47,3.66l-.13.48a2.46,2.46,0,0,0,1.7,3l4,1.1a2.5,2.5,0,0,0,.66.09,2.45,2.45,0,0,0,1.2-.32,2.39,2.39,0,0,0,1.15-1.47l.05-.18q2.25.83,4.45,1.78l-.17.41a2.45,2.45,0,0,0,1.32,3.2l3.81,1.56a2.31,2.31,0,0,0,.93.19,2.36,2.36,0,0,0,.94-.19A2.42,2.42,0,0,0,177.42,31q2,1.14,4,2.38l0,.07a2.45,2.45,0,0,0,.64,3.4l3.4,2.32a2.48,2.48,0,0,0,1.37.42,2.38,2.38,0,0,0,.46,0,2.49,2.49,0,0,0,1.47-.91q1.38,1.13,2.7,2.31a2.45,2.45,0,0,0,.27,3.13l2.91,2.9a2.39,2.39,0,0,0,1.73.72h0a2.45,2.45,0,0,0,1.34-.4l0,0a21.13,21.13,0,0,1,5,10.78,26.67,26.67,0,0,1-6.48,21.38,4.61,4.61,0,0,1-1.72,1.15c-4.26,1.73-7.66,5.14-12.2,6.21a12.77,12.77,0,0,1-7.37-.41c-2.18-.81-4.8-2.58-5.36-5a1.6,1.6,0,0,0,.05-.39V67.16a12.08,12.08,0,0,0-2.85-8,10.16,10.16,0,0,0-7.8-3.45,11.06,11.06,0,0,0-8,3.35v-1.8A1.59,1.59,0,0,0,149,55.68a1.68,1.68,0,0,0-1.26,1.6V81.06a1.58,1.58,0,1,0,3.15,0V67.16a8.1,8.1,0,0,1,8-8.35c4.35,0,7.5,3.55,7.5,8.35v13.9a1.59,1.59,0,0,0,.14.66,1.76,1.76,0,0,0,0,.39c.55,2.81,3.12,5.08,5.56,6.36l.22.11c-.18.09-.36.18-.54.29a11.21,11.21,0,0,0-4.57,5.67,1.51,1.51,0,0,0,1.05,1.84,1.53,1.53,0,0,0,1.85-1,7,7,0,0,1,.54-1.13,7.44,7.44,0,0,1,.72-1,7.7,7.7,0,0,1,2.07-1.78,9.16,9.16,0,0,1,3.88-1.21,9.6,9.6,0,0,1,2.39.09,1.24,1.24,0,0,0,.63-.11h.15A19.1,19.1,0,0,0,189.3,87a31.48,31.48,0,0,1,6.54-3.69h.06a26.64,26.64,0,0,1,27.62,14.77h0a1.92,1.92,0,0,0,2.73-1.35A26.65,26.65,0,0,1,248.64,76l.07,0a94.47,94.47,0,0,1,14,.24c4.07.44,7.53,2.69,10.49,5.51,1.33,1.26,3.35-.81,2.05-2.2a20.38,20.38,0,0,0-5.94-4.38.6.6,0,0,1-.08-1,20.72,20.72,0,0,0,6.66-6.77c2-3.61,2.83-7.73,3.56-11.76C279.78,53.68,276.89,52.87,276.54,54.77Zm-44.9,23.62A13.5,13.5,0,1,1,232,61.94,13.51,13.51,0,0,1,231.64,78.39Z"/></g></svg>