<svg xmlns="http://www.w3.org/2000/svg" viewBox="0 0 298 111"><defs><style>.cls-1{fill:#fff;}</style></defs><g id="paleta_colors"><path class="cls-1" d="M210.55,58.52a13.5,13.5,0,1,0,21.41.42A13.52,13.52,0,0,0,210.55,58.52Zm13,10.95a3.43,3.43,0,0,1-2.42,1,3.5,3.5,0,0,1-2.43-6,3.43,3.43,0,0,1,2.42-1,3.5,3.5,0,0,1,2.43,6Z"/><path class="cls-1" d="M131.38,56.17c-5.45,0-9.55,4.45-9.55,10.35s4.1,10.3,9.55,10.3,9.6-4.45,9.6-10.3S136.88,56.17,131.38,56.17Z"/><path class="cls-1" d="M289.27,54.36a11.49,11.49,0,0,0-2.48-9.47,11.68,11.68,0,0,0-9-4.21A11.16,11.16,0,0,0,266.7,50l-.05.26c-.53,2.94-1,5.71-2,7.54a9.18,9.18,0,0,1-2.35,2.31c-2.25-.22-4.65-.32-7.27-.32h-1A7.09,7.09,0,0,1,248.35,57,16.7,16.7,0,0,1,245.24,44a11.35,11.35,0,0,0-19-10.17A16.57,16.57,0,0,1,210.77,38h0a12.34,12.34,0,0,0-3.48-6.77l-2.9-2.91a12.45,12.45,0,0,0-5.33-3.16,12.67,12.67,0,0,0-3.83-4.1L192.12,19a12.56,12.56,0,0,0-5.5-2.07,12.52,12.52,0,0,0-5.45-4.36L177.36,11a12.37,12.37,0,0,0-4.72-.93h-.41a12.45,12.45,0,0,0-5.57-3.28l-3.95-1.09a12.13,12.13,0,0,0-3.34-.46,12.39,12.39,0,0,0-4.17.72,124.85,124.85,0,0,0-14.82-2.49,148.34,148.34,0,0,0-15.74-.84,143,143,0,0,0-25.3,2.24A188.54,188.54,0,0,0,60.63,16.51,238.23,238.23,0,0,0,22,36.87a11.66,11.66,0,0,0-3.43,3.46,11.55,11.55,0,0,0-2.3,6.92v32.1A11.6,11.6,0,0,0,27.88,91H45.44A11.54,11.54,0,0,0,53,88.15a22.77,22.77,0,0,0,19.62-.74,11.5,11.5,0,0,0,15-.4,11.44,11.44,0,0,0,7.74,3,11.61,11.61,0,0,0,9.35-4.74A11.58,11.58,0,0,0,114.08,90a11.37,11.37,0,0,0,7-2.44A22.52,22.52,0,0,0,131.38,90a22.92,22.92,0,0,0,6.58-1,11.51,11.51,0,0,0,4.62,1,11.64,11.64,0,0,0,4-.71,11.52,11.52,0,0,0,11.76-3.91c.12.25.26.49.4.74a17.47,17.47,0,0,0-.82,1.93,11.31,11.31,0,0,0,.57,9.07,11.48,11.48,0,0,0,20.45.08c.32,0,.64,0,1,0a10.93,10.93,0,0,0,2.36-.25,29.14,29.14,0,0,0,12.61-4.72l.26-.17a36.58,36.58,0,0,1,3.27-2c.39,0,.78,0,1.17,0a16.74,16.74,0,0,1,15,9.38A10,10,0,0,0,219,104h0a11.91,11.91,0,0,0,17-8.17,16.71,16.71,0,0,1,13.75-12.91c1.85-.08,3.48-.12,5-.12a65.09,65.09,0,0,1,6.89.33c1.59.17,3.41,1.63,4.66,2.81a11.3,11.3,0,0,0,7.82,3.15h0a11.57,11.57,0,0,0,10.59-7,11.45,11.45,0,0,0-1.16-11.16c.36-.53.71-1.09,1-1.68C287.51,64,288.53,58.44,289.27,54.36ZM73.48,68.12h-20c.7,5,4.55,8.7,9.5,8.7a9,9,0,0,0,8-4.5A1.62,1.62,0,0,1,73.78,74,12.39,12.39,0,0,1,63,80c-7.3,0-12.75-5.8-12.75-13.5a14.25,14.25,0,0,1,3.4-9.5,12,12,0,0,1,9.1-4c7.15,0,12.3,5.65,12.3,13.5A1.61,1.61,0,0,1,73.48,68.12Zm15.75-12c-4.4,0-7.75,3.6-7.75,8.35v13.9a1.58,1.58,0,1,1-3.15,0V54.57a1.58,1.58,0,0,1,3.15,0v1.65A10.67,10.67,0,0,1,89.23,53a1.58,1.58,0,1,1,0,3.15Zm26.4,22.25a1.58,1.58,0,1,1-3.15,0V64.52c0-4.8-3.15-8.35-7.5-8.35a8.1,8.1,0,0,0-8,8.35v13.9a1.58,1.58,0,1,1-3.15,0V54.57a1.58,1.58,0,0,1,3.15,0v1.8A11.06,11.06,0,0,1,105,53a10.16,10.16,0,0,1,7.8,3.45,12.08,12.08,0,0,1,2.85,8Zm28.55,0a1.6,1.6,0,0,1-3.2,0v-2.8a12.33,12.33,0,0,1-9.6,4.4c-7.25,0-12.75-5.8-12.75-13.5S124.13,53,131.38,53a12.45,12.45,0,0,1,9.6,4.35v-2.8a1.6,1.6,0,0,1,3.2,0Zm1.21-35.05a11.82,11.82,0,0,0-2.81-.35A11.64,11.64,0,0,0,138,44a23.32,23.32,0,0,0-6.58-.95,22.36,22.36,0,0,0-13.54,4.49A20.46,20.46,0,0,0,105,43a21.41,21.41,0,0,0-5.56.72,11.58,11.58,0,0,0-7.11-.3A11.68,11.68,0,0,0,89.23,43a21.12,21.12,0,0,0-5.41.69,11.56,11.56,0,0,0-11.35,2A22,22,0,0,0,61.78,43a23.14,23.14,0,0,0-5.5.66,181.89,181.89,0,0,1,42-15.19,123.23,123.23,0,0,1,26.54-2.88c2.46,0,5,.07,7.45.22a112.39,112.39,0,0,1,16.17,2.08,12.37,12.37,0,0,0,6.77,4.72l4,1.1a12.58,12.58,0,0,0,3.34.46h.18a12.49,12.49,0,0,0,4,2.66l3.77,1.56A11.68,11.68,0,0,0,166.18,44a20.74,20.74,0,0,0-7.25-1.3,21.71,21.71,0,0,0-5.55.72,11.82,11.82,0,0,0-4-.72h-.12A11.26,11.26,0,0,0,145.39,43.37Zm134,9.19c-.73,4-1.53,8.15-3.56,11.76a20.72,20.72,0,0,1-6.66,6.77.6.6,0,0,0,.08,1,20.38,20.38,0,0,1,5.94,4.38c1.3,1.39-.72,3.46-2.05,2.2-3-2.82-6.42-5.07-10.49-5.51a94.47,94.47,0,0,0-14-.24l-.07,0a26.65,26.65,0,0,0-22.39,20.73,1.92,1.92,0,0,1-2.73,1.35h0A26.64,26.64,0,0,0,195.9,80.29h-.06A31.48,31.48,0,0,0,189.3,84a19.1,19.1,0,0,1-8.76,3.16h-.15a1.24,1.24,0,0,1-.63.11,9.6,9.6,0,0,0-2.39-.09,9.16,9.16,0,0,0-3.88,1.21,7.7,7.7,0,0,0-2.07,1.78,7.44,7.44,0,0,0-.72,1,7,7,0,0,0-.54,1.13,1.53,1.53,0,0,1-1.85,1,1.51,1.51,0,0,1-1.05-1.84,11.21,11.21,0,0,1,4.57-5.67c.18-.11.36-.2.54-.29l-.22-.11c-2.44-1.28-5-3.55-5.56-6.36a1.76,1.76,0,0,1,0-.39,1.59,1.59,0,0,1-.14-.66V64.16c0-4.8-3.15-8.35-7.5-8.35a8.1,8.1,0,0,0-8,8.35v13.9a1.58,1.58,0,1,1-3.15,0V54.28a1.68,1.68,0,0,1,1.26-1.6,1.59,1.59,0,0,1,1.89,1.53V56a11.06,11.06,0,0,1,8-3.35,10.16,10.16,0,0,1,7.8,3.45,12.08,12.08,0,0,1,2.85,8v13.9a1.6,1.6,0,0,1-.05.39c.56,2.4,3.18,4.17,5.36,5a12.77,12.77,0,0,0,7.37.41c4.54-1.07,7.94-4.48,12.2-6.21a4.61,4.61,0,0,0,1.72-1.15,26.67,26.67,0,0,0,6.48-21.38,21.13,21.13,0,0,0-5-10.78l0,0a2.45,2.45,0,0,1-1.34.4h0a2.39,2.39,0,0,1-1.73-.72l-2.91-2.9a2.45,2.45,0,0,1-.27-3.13q-1.32-1.19-2.7-2.31a2.49,2.49,0,0,1-1.47.91,2.38,2.38,0,0,1-.46,0,2.48,2.48,0,0,1-1.37-.42L182,33.84a2.45,2.45,0,0,1-.64-3.4l0-.07q-1.95-1.25-4-2.38a2.42,2.42,0,0,1-1.24,1.18,2.36,2.36,0,0,1-.94.19,2.31,2.31,0,0,1-.93-.19L170.5,27.6a2.44,2.44,0,0,1-1.32-3.19l.17-.41q-2.21-1-4.45-1.78l-.05.18a2.39,2.39,0,0,1-1.15,1.47,2.45,2.45,0,0,1-1.2.32,2.5,2.5,0,0,1-.66-.09l-4-1.1a2.46,2.46,0,0,1-1.7-3l.13-.48a118,118,0,0,0-23.47-3.66,133.34,133.34,0,0,0-36.73,2.89C72.43,24,49.79,34.36,29.48,47.52V77.75h16a1.61,1.61,0,0,1,1.6,1.6,1.58,1.58,0,0,1-1.6,1.6H27.89a1.61,1.61,0,0,1-1.61-1.6V47.25A1.59,1.59,0,0,1,26.85,46a1.5,1.5,0,0,1,.62-.79,228.72,228.72,0,0,1,37-19.51,178,178,0,0,1,36.65-11.07,134.75,134.75,0,0,1,38.2-1.29,114.93,114.93,0,0,1,17.81,3.32,2.43,2.43,0,0,1,2.9-1.41l4,1.1a2.43,2.43,0,0,1,1.7,3h0v0q2.41.88,4.79,1.91a2.45,2.45,0,0,1,3.09-1.13l3.8,1.57A2.44,2.44,0,0,1,178.68,25l-.12.31c1.52.84,3,1.74,4.48,2.67l.05-.08a2.45,2.45,0,0,1,3.4-.64l3.1,2.12a2.91,2.91,0,0,1,.94,3.59h0l-.18.25c1.06.85,2.09,1.72,3.1,2.62l.4-.4a2.46,2.46,0,0,1,3.46,0l2.9,2.91a2.43,2.43,0,0,1,0,3.45l-.45.46,0,0a17.28,17.28,0,0,0,9.48,5.68,26.64,26.64,0,0,0,23.87-6.88,1.35,1.35,0,0,1,2.26,1.21,26.61,26.61,0,0,0,5.47,21.36,16.8,16.8,0,0,0,13.24,6.14,63.77,63.77,0,0,1,9.09.49h0a4.45,4.45,0,0,0,3-.72c2.78-1.88,5.66-4.24,7.15-7,1.79-3.31,2.46-7.12,3.12-10.77C276.89,49.87,279.78,50.68,279.43,52.56Zm-95.1.46a1.58,1.58,0,1,1,0,3.15h-5.65v17.4a3.29,3.29,0,0,0,3.3,3.25,3.11,3.11,0,0,0,2.45-1.15,1.61,1.61,0,0,1,2.45,2.1,6.49,6.49,0,0,1-11.4-4.2V56.17H174A1.58,1.58,0,0,1,174,53h1.45v-5.1a1.61,1.61,0,0,1,1.6-1.6,1.58,1.58,0,0,1,1.6,1.6V53Z"/><path class="cls-1" d="M62.78,56.17c-4.9,0-8.6,3.6-9.25,8.75H71.78C71.18,59.72,67.68,56.17,62.78,56.17Z"/></g></svg>