<svg xmlns="http://www.w3.org/2000/svg" viewBox="0 0 268 99"><defs><style>.cls-1{fill:#fff;}</style></defs><g id="paleta_colors"><path class="cls-1" d="M45,76c-7.3,0-12.75-5.8-12.75-13.5a14.25,14.25,0,0,1,3.4-9.5,12,12,0,0,1,9.1-4c7.15,0,12.3,5.65,12.3,13.5a1.61,1.61,0,0,1-1.6,1.6H35.53c.7,5,4.55,8.7,9.5,8.7a9,9,0,0,0,8-4.5A1.62,1.62,0,0,1,55.78,70,12.39,12.39,0,0,1,45,76Zm-9.5-15.1H53.78c-.6-5.2-4.1-8.75-9-8.75S36.18,55.77,35.53,60.92Z"/><path class="cls-1" d="M72.83,50.57a1.58,1.58,0,0,1-1.6,1.6c-4.4,0-7.75,3.6-7.75,8.35v13.9a1.58,1.58,0,1,1-3.15,0V50.57a1.58,1.58,0,0,1,3.15,0v1.65A10.67,10.67,0,0,1,71.23,49,1.57,1.57,0,0,1,72.83,50.57Z"/><path class="cls-1" d="M97.63,60.52v13.9a1.58,1.58,0,1,1-3.15,0V60.52c0-4.8-3.15-8.35-7.5-8.35a8.1,8.1,0,0,0-8,8.35v13.9a1.58,1.58,0,1,1-3.15,0V50.57a1.58,1.58,0,0,1,3.15,0v1.8A11.06,11.06,0,0,1,87,49a10.16,10.16,0,0,1,7.8,3.45A12.08,12.08,0,0,1,97.63,60.52Z"/><path class="cls-1" d="M126.18,50.57V74.42a1.6,1.6,0,0,1-3.2,0v-2.8a12.33,12.33,0,0,1-9.6,4.4c-7.25,0-12.75-5.8-12.75-13.5S106.13,49,113.38,49a12.45,12.45,0,0,1,9.6,4.35v-2.8a1.6,1.6,0,0,1,3.2,0Zm-3.2,12c0-5.9-4.1-10.35-9.6-10.35s-9.55,4.45-9.55,10.35,4.1,10.3,9.55,10.3S123,68.37,123,62.52Z"/><path class="cls-1" d="M168.68,71.52a1.59,1.59,0,0,1,.2,2.25,6.49,6.49,0,0,1-11.4-4.2V52.17H156A1.58,1.58,0,0,1,156,49h1.45v-5.1a1.61,1.61,0,0,1,1.6-1.6,1.58,1.58,0,0,1,1.6,1.6V49h5.65a1.58,1.58,0,1,1,0,3.15h-5.65v17.4a3.29,3.29,0,0,0,3.3,3.25,3.11,3.11,0,0,0,2.45-1.15A1.59,1.59,0,0,1,168.68,71.52Z"/><path class="cls-1" d="M258.54,47.77c-.66,3.65-1.33,7.46-3.12,10.77-1.49,2.76-4.37,5.12-7.15,7a4.45,4.45,0,0,1-3.05.72h0a63.77,63.77,0,0,0-9.09-.49,16.8,16.8,0,0,1-13.24-6.14,26.61,26.61,0,0,1-5.47-21.36,1.35,1.35,0,0,0-2.26-1.21,26.64,26.64,0,0,1-23.87,6.88,17.28,17.28,0,0,1-9.48-5.68l0,0,.45-.46a2.43,2.43,0,0,0,0-3.45l-2.9-2.91a2.46,2.46,0,0,0-3.46,0l-.4.4c-1-.9-2-1.77-3.1-2.62l.18-.25h0a2.91,2.91,0,0,0-.94-3.59l-3.1-2.12a2.45,2.45,0,0,0-3.4.64L165,24c-1.47-.93-3-1.83-4.48-2.67l.12-.31a2.44,2.44,0,0,0-1.32-3.19l-3.8-1.57a2.45,2.45,0,0,0-3.09,1.13q-2.37-1-4.79-1.91v0h0a2.43,2.43,0,0,0-1.7-3l-4-1.1a2.43,2.43,0,0,0-2.9,1.41,114.93,114.93,0,0,0-17.81-3.32,134.75,134.75,0,0,0-38.2,1.29A178,178,0,0,0,46.46,21.74a228.72,228.72,0,0,0-37,19.51,1.5,1.5,0,0,0-.62.79,1.59,1.59,0,0,0-.57,1.21v32.1A1.61,1.61,0,0,0,9.89,77H27.44a1.58,1.58,0,0,0,1.6-1.6,1.61,1.61,0,0,0-1.6-1.6h-16V43.52C31.79,30.36,54.43,20,78.11,14.73a133.34,133.34,0,0,1,36.73-2.89,118,118,0,0,1,23.47,3.66l-.13.48a2.46,2.46,0,0,0,1.7,3l4,1.1a2.5,2.5,0,0,0,.66.09,2.45,2.45,0,0,0,1.2-.32,2.39,2.39,0,0,0,1.15-1.47l.05-.18q2.25.83,4.45,1.78l-.17.41a2.45,2.45,0,0,0,1.32,3.2l3.81,1.56a2.31,2.31,0,0,0,.93.19,2.36,2.36,0,0,0,.94-.19A2.42,2.42,0,0,0,159.42,24q2,1.14,4,2.38l0,.07a2.45,2.45,0,0,0,.64,3.4l3.4,2.32a2.48,2.48,0,0,0,1.37.42,2.38,2.38,0,0,0,.46,0,2.49,2.49,0,0,0,1.47-.91q1.38,1.13,2.7,2.31a2.45,2.45,0,0,0,.27,3.13l2.91,2.9a2.39,2.39,0,0,0,1.73.72h0a2.45,2.45,0,0,0,1.34-.4l0,0a21.13,21.13,0,0,1,5,10.78,26.67,26.67,0,0,1-6.48,21.38,4.61,4.61,0,0,1-1.72,1.15c-4.26,1.73-7.66,5.14-12.2,6.21a12.77,12.77,0,0,1-7.37-.41c-2.18-.81-4.8-2.58-5.36-5a1.6,1.6,0,0,0,.05-.39V60.16a12.08,12.08,0,0,0-2.85-8,10.16,10.16,0,0,0-7.8-3.45,11.06,11.06,0,0,0-8,3.35v-1.8A1.59,1.59,0,0,0,131,48.68a1.68,1.68,0,0,0-1.26,1.6V74.06a1.58,1.58,0,1,0,3.15,0V60.16a8.1,8.1,0,0,1,8-8.35c4.35,0,7.5,3.55,7.5,8.35v13.9a1.59,1.59,0,0,0,.14.66,1.76,1.76,0,0,0,0,.39c.55,2.81,3.12,5.08,5.56,6.36l.22.11c-.18.09-.36.18-.54.29a11.21,11.21,0,0,0-4.57,5.67,1.51,1.51,0,0,0,1.05,1.84,1.53,1.53,0,0,0,1.85-1,7,7,0,0,1,.54-1.13,7.44,7.44,0,0,1,.72-1,7.7,7.7,0,0,1,2.07-1.78,9.16,9.16,0,0,1,3.88-1.21,9.6,9.6,0,0,1,2.39.09,1.24,1.24,0,0,0,.63-.11h.15A19.1,19.1,0,0,0,171.3,80a31.48,31.48,0,0,1,6.54-3.69h.06a26.64,26.64,0,0,1,27.62,14.77h0a1.92,1.92,0,0,0,2.73-1.35A26.65,26.65,0,0,1,230.64,69l.07,0a94.47,94.47,0,0,1,14,.24c4.07.44,7.53,2.69,10.49,5.51,1.33,1.26,3.35-.81,2.05-2.2a20.38,20.38,0,0,0-5.94-4.38.6.6,0,0,1-.08-1,20.72,20.72,0,0,0,6.66-6.77c2-3.61,2.83-7.73,3.56-11.76C261.78,46.68,258.89,45.87,258.54,47.77Zm-44.9,23.62A13.5,13.5,0,1,1,214,54.94,13.51,13.51,0,0,1,213.64,71.39Z"/></g></svg>